<?xml version="1.0" encoding="UTF-8" standalone="no"?>
<svg width="27px" height="21px" viewBox="0 0 27 21" version="1.1" xmlns="http://www.w3.org/2000/svg" xmlns:xlink="http://www.w3.org/1999/xlink" xmlns:sketch="http://www.bohemiancoding.com/sketch/ns">
    <!-- Generator: Sketch 3.3.2 (12043) - http://www.bohemiancoding.com/sketch -->
    <title>email</title>
    <desc>Created with Sketch.</desc>
    <defs></defs>
    <g id="Page-1" stroke="none" stroke-width="1" fill="none" fill-rule="evenodd" sketch:type="MSPage">
        <g id="main" sketch:type="MSArtboardGroup" transform="translate(-1752.000000, -33.000000)" fill="#424242">
            <g id="Баннер-" sketch:type="MSLayerGroup" transform="translate(-219.000000, 0.000000)">
                <g id="email" transform="translate(1971.000000, 33.000000)" sketch:type="MSShapeGroup">
                    <path d="M24.5,0 L2.5,0 C1.1215,0 0,1.1215 0,2.5 L0,18.5 C0,19.8785 1.1215,21 2.5,21 L24.5,21 C25.8785,21 27,19.8785 27,18.5 L27,2.5 C27,1.1215 25.8785,0 24.5,0 L24.5,0 Z M26,18.5 C26,19.327 25.327,20 24.5,20 L2.5,20 C1.673,20 1,19.327 1,18.5 L1,2.5 C1,1.673 1.673,1 2.5,1 L24.5,1 C25.327,1 26,1.673 26,2.5 L26,18.5 L26,18.5 Z" id="Fill-1"></path>
                    <path d="M24.1735,2.1215 L14.687,10.3145 C14.0435,10.87 12.9565,10.8695 12.313,10.3145 L2.8265,2.1215 C2.6185,1.942 2.3025,1.9635 2.1215,2.173 C1.941,2.382 1.9645,2.698 2.1735,2.8785 L11.6595,11.0715 C12.167,11.5095 12.8335,11.7285 13.5,11.7285 C14.1665,11.7285 14.833,11.5095 15.3405,11.0715 L24.8265,2.8785 C25.0355,2.698 25.059,2.382 24.8785,2.173 C24.697,1.9635 24.381,1.942 24.1735,2.1215" id="Fill-2"></path>
                </g>
            </g>
        </g>
    </g>
</svg>