<?xml version="1.0" encoding="UTF-8" standalone="no"?>
<svg width="28px" height="28px" viewBox="0 0 28 28" version="1.1" xmlns="http://www.w3.org/2000/svg" xmlns:xlink="http://www.w3.org/1999/xlink" xmlns:sketch="http://www.bohemiancoding.com/sketch/ns">
    <!-- Generator: Sketch 3.3.2 (12043) - http://www.bohemiancoding.com/sketch -->
    <title>phone</title>
    <desc>Created with Sketch.</desc>
    <defs></defs>
    <g id="Page-1" stroke="none" stroke-width="1" fill="none" fill-rule="evenodd" sketch:type="MSPage">
        <g id="main" sketch:type="MSArtboardGroup" transform="translate(-1537.000000, -32.000000)" fill="#424242">
            <g id="Баннер-" sketch:type="MSLayerGroup" transform="translate(-219.000000, 0.000000)">
                <g id="phone" transform="translate(1756.000000, 32.000000)" sketch:type="MSShapeGroup">
                    <path d="M27.8574074,22.9682963 C27.7832593,22.4674074 27.4586667,22.0261481 26.8634074,21.6191111 L20.7288148,17.4217037 C20.412,17.206 20.0433333,17.0914074 19.6627407,17.0914074 C19.0705926,17.0914074 18.5152593,17.3708889 18.1756296,17.8422222 L16.5832593,20.0962222 C16.4582963,20.270963 16.4292593,20.4861481 16.420963,20.6935556 C15.8122222,20.7832593 14.0466667,20.7288148 11.1497037,17.8328889 C8.34866667,15.0354815 7.0222963,12.9785185 7.19444444,11.7081481 C7.22555556,11.6931111 7.24785185,11.6625185 7.27585185,11.6412593 C7.42155556,11.6008148 7.55585185,11.551037 7.66422222,11.4665185 L9.86274074,9.80103704 C10.6477778,9.20940741 10.8017778,8.05777778 10.2044444,7.23177778 L5.80740741,1.23614815 C4.96118519,0.084 3.96666667,-0.0362962963 2.89903704,0.880962963 C2.22392593,1.45962963 1.10288889,2.85807407 0.638296296,3.69911111 C0.383703704,4.1497037 0.277925926,4.6142963 0.323037037,5.08251852 C0.160740741,5.75607407 -0.192888889,7.74096296 0.396666667,10.5093333 C1.19777778,14.2717037 3.36466667,17.8842222 6.83718519,21.2462963 C12.6435556,26.8644444 17.7437037,27.7034074 20.2668148,27.7039259 C21.7513333,27.7039259 22.7857778,27.4311852 23.2628148,27.231037 C23.7061481,27.2497037 24.1437778,27.1252593 24.571037,26.8685926 C25.3980741,26.3791111 26.7571111,25.2124444 27.3134815,24.5155556 C27.7526667,23.9716296 27.9305185,23.4655556 27.8574074,22.9682963 L27.8574074,22.9682963 Z M26.5045926,23.8663704 C26.024963,24.4678519 24.7597778,25.5520741 24.0411111,25.9777778 C23.9436296,26.0358519 23.8471852,26.0783704 23.7522963,26.1136296 C23.0517778,25.8097778 21.8202963,25.1657778 21.4511111,24.7042963 C21.2727407,24.4808148 20.9460741,24.4445185 20.7225926,24.6228889 C20.4991111,24.8022963 20.4622963,25.1284444 20.6417037,25.3524444 C20.9668148,25.7594815 21.5900741,26.1654815 22.1588889,26.4812593 C21.7041481,26.5802963 21.0725926,26.6668889 20.2668148,26.6668889 C17.9002963,26.6663704 13.1024444,25.8652593 7.55844444,20.5006667 C-0.347407407,12.8468148 1.15422222,6.00133333 1.35125926,5.24637037 C1.36888889,5.17896296 1.37251852,5.10844444 1.36266667,5.04 C1.32222222,4.76518519 1.38081481,4.49348148 1.54414815,4.20466667 C1.94911111,3.46992593 2.99288889,2.16688889 3.57466667,1.66807407 C3.84222222,1.43785185 4.08022222,1.316 4.26274074,1.316 C4.34103704,1.316 4.57955556,1.316 4.97103704,1.84955556 L9.366,7.84259259 C9.63303704,8.21177778 9.57548148,8.71888889 9.23740741,8.97451852 L7.06222222,10.6244444 C7.05340741,10.6285926 7.03837037,10.6337778 7.02385185,10.6384444 C6.45037037,10.1982222 5.66585185,9.53451852 5.41851852,9.15548148 C5.26244444,8.91540741 4.93992593,8.84851852 4.70088889,9.00407407 C4.46081481,9.16066667 4.39340741,9.48214815 4.55,9.7217037 C4.88496296,10.2355556 5.69437037,10.9148148 6.21237037,11.3213333 C5.79962963,13.0106667 7.11148148,15.2651852 10.417037,18.5665926 C13.0511111,21.1996296 14.9711852,21.7518519 16.1176296,21.7518519 C16.6211111,21.7518519 16.9975556,21.6398519 17.1821481,21.5351111 C17.3205926,21.4562963 17.4154815,21.3178519 17.4388148,21.1602222 C17.4491852,21.0897037 17.4528148,20.9880741 17.4543704,20.8760741 C17.4548889,20.8138519 17.4564444,20.707037 17.4637037,20.6474074 L19.0202963,18.4447407 C19.2567407,18.1165185 19.7851111,18.0335556 20.1439259,18.2777778 L26.278,22.4751852 C26.6160741,22.7064444 26.8022222,22.9231852 26.8312593,23.1191852 C26.8597778,23.3115556 26.7503704,23.562 26.5045926,23.8663704 L26.5045926,23.8663704 Z" id="Fill-1"></path>
                    <path d="M13.3793333,6.24607407 C17.3900741,7.47081481 20.5281481,10.5928148 21.7736296,14.5962963 C21.8425926,14.8187407 22.0474074,14.9613333 22.2688148,14.9613333 C22.3196296,14.9613333 22.372,14.9535556 22.4228148,14.938 C22.6960741,14.8524444 22.849037,14.5620741 22.764,14.2888148 C21.4163704,9.95659259 18.0211111,6.57896296 13.6821481,5.25466667 C13.4078519,5.16859259 13.1185185,5.32466667 13.035037,5.59896296 C12.951037,5.87274074 13.1055556,6.16259259 13.3793333,6.24607407" id="Fill-2"></path>
                    <path d="M14.0912593,2.40385185 C20.104,3.82511111 24.7017037,8.67118519 25.803037,14.7487407 C25.8481481,14.9991852 26.0664444,15.174963 26.3127407,15.174963 C26.3433333,15.174963 26.3744444,15.1723704 26.4055556,15.1666667 C26.6871111,15.1153333 26.8742963,14.8457037 26.822963,14.5636296 C25.6485185,8.08007407 20.7443704,2.91044444 14.3297778,1.3942963 C14.0513333,1.33051852 13.7718519,1.50059259 13.706,1.77955556 C13.6401481,2.05851852 13.8122963,2.33748148 14.0912593,2.40385185" id="Fill-3"></path>
                </g>
            </g>
        </g>
    </g>
</svg>