<?xml version="1.0" encoding="UTF-8" standalone="no"?>
<svg width="18px" height="24px" viewBox="0 0 18 24" version="1.1" xmlns="http://www.w3.org/2000/svg" xmlns:xlink="http://www.w3.org/1999/xlink" xmlns:sketch="http://www.bohemiancoding.com/sketch/ns">
    <!-- Generator: Sketch 3.3.2 (12043) - http://www.bohemiancoding.com/sketch -->
    <title>pin</title>
    <desc>Created with Sketch.</desc>
    <defs></defs>
    <g id="Page-1" stroke="none" stroke-width="1" fill="none" fill-rule="evenodd" sketch:type="MSPage">
        <g id="main" sketch:type="MSArtboardGroup" transform="translate(-388.000000, -30.000000)" fill="#424242">
            <g id="Баннер-" sketch:type="MSLayerGroup" transform="translate(-219.000000, 0.000000)">
                <g id="pin" transform="translate(607.000000, 30.000000)" sketch:type="MSShapeGroup">
                    <path d="M8.580375,23.2554419 C8.68725,23.3737674 8.8396875,23.4418605 9,23.4418605 C9.1625625,23.4507907 9.3155625,23.3726512 9.4224375,23.252093 C9.6159375,23.0338605 14.1913125,17.835907 16.7158125,12.0943256 C17.271,10.9428837 17.5528125,9.72167442 17.5528125,8.46418605 C17.5528125,3.79702326 13.7030625,0 8.9713125,0 C4.239,0 0.38925,3.79702326 0.38925,8.46418605 C0.38925,9.7412093 0.6665625,10.9624186 1.206,12.0770233 C3.738375,17.8375814 8.3835,23.0366512 8.580375,23.2554419 L8.580375,23.2554419 Z M8.9713125,1.11627907 C13.082625,1.11627907 16.4278125,4.41265116 16.4278125,8.46418605 C16.4278125,9.55367442 16.183125,10.6130233 15.692625,11.6305116 C13.6693125,16.2312558 10.1941875,20.5903256 8.9971875,22.0230698 C7.785,20.5931163 4.2586875,16.2301395 2.228625,11.612093 C1.7544375,10.6314419 1.51425,9.57265116 1.51425,8.46418605 C1.51425,4.41265116 4.8594375,1.11627907 8.9713125,1.11627907 L8.9713125,1.11627907 Z" id="Fill-1"></path>
                    <path d="M8.97075,12.4096744 C11.2156875,12.4096744 13.042125,10.5979535 13.042125,8.3704186 C13.042125,6.14344186 11.2156875,4.33116279 8.97075,4.33116279 C6.726375,4.33116279 4.8999375,6.14344186 4.8999375,8.3704186 C4.8999375,10.5979535 6.726375,12.4096744 8.97075,12.4096744 L8.97075,12.4096744 Z M8.97075,5.44744186 C10.59525,5.44744186 11.917125,6.75851163 11.917125,8.3704186 C11.917125,9.98232558 10.59525,11.2933953 8.97075,11.2933953 C7.3468125,11.2933953 6.0249375,9.98232558 6.0249375,8.3704186 C6.0249375,6.75851163 7.3468125,5.44744186 8.97075,5.44744186 L8.97075,5.44744186 Z" id="Fill-2"></path>
                </g>
            </g>
        </g>
    </g>
</svg>